# xmcd
#
# Track frame offsets: 
#        150
#        15100
#        25572
#        36540
#        48937
#        60462
#        74440
#        89065
#        99132
#        111142
#        127725
#        137227
#        151022
#        163640
#        175317
#        188075
#        200425
#        211407
#        223380
#        233815
#        258077
#
# Disc length: 4440 seconds
#
# Revision: 0
# Processed by: cddbd v1.5PL3 Copyright (c) Steve Scherf et al.
# Submitted via: ExactAudioCopy v0.95a5
#
DISCID=19115615
DTITLE=Glen Campbell - Country Standards
DYEAR=2003
DGENRE=Country
TTITLE0=Your Cheatin' Heart
TTITLE1=Help Me Make It Through The Night
TTITLE2=I'm So Lonesome I Could Cry
TTITLE3=Cold Heart
TTITLE4=All I Have To Do Is Dream
TTITLE5=Country Boy
TTITLE6=Rhinestone Cowboy
TTITLE7=Someday Soon
TTITLE8=I Can't Help It
TTITLE9=You Win Again
TTITLE10=I Believe
TTITLE11=Long Black Limousine
TTITLE12=Bonaparte's Retreat
TTITLE13=Take These Chains From My Heart
TTITLE14=Rose Garden
TTITLE15=If Not For You
TTITLE16=It's Only Make Believe
TTITLE17=Homeward Bound
TTITLE18=Reason To Believe
TTITLE19=Cryin'
TTITLE20=DATA
EXTD=
EXTT0=
EXTT1=
EXTT2=
EXTT3=
EXTT4=
EXTT5=
EXTT6=
EXTT7=
EXTT8=
EXTT9=
EXTT10=
EXTT11=
EXTT12=
EXTT13=
EXTT14=
EXTT15=
EXTT16=
EXTT17=
EXTT18=
EXTT19=
EXTT20=
PLAYORDER=
